<?xml version="1.0" encoding="utf-8"?>
<!-- Generator: Adobe Illustrator 25.0.0, SVG Export Plug-In . SVG Version: 6.00 Build 0)  -->
<svg version="1.1" id="Layer_1" xmlns="http://www.w3.org/2000/svg" xmlns:xlink="http://www.w3.org/1999/xlink" x="0px" y="0px"
	 viewBox="0 0 1920 40.1" style="enable-background:new 0 0 1920 40.1;" xml:space="preserve">
<style type="text/css">
	.st0{fill:#131313;}
</style>
<g>
	<path class="st0" d="M1925.3,22.4c-4.3,3.8-11.1,9-20.5,11.7c-15.5,4.6-28.3-0.2-38.7-2.8c-36.8-9.2-43.8,9.1-87.5,3.2
		c-32.2-4.3-28.6-14.2-53.3-14.7c-36.1-0.7-42.1,20.6-76.6,19.9c-29.3-0.6-30.9-16-62.5-16.3c-30.3-0.3-32.7,13.8-61.3,13.3
		c-33-0.6-35.9-19.6-68.9-21c-27.8-1.1-31.4,12.1-67.5,15.3c-19.7,1.7-19.9-2.6-63.4-6.6c-53.1-4.9-79.6-7.3-98-1
		c-21.1,7.2-30.8,17.6-49.5,14.3c-15-2.7-18.3-11.1-31.9-17c-26.5-11.5-46.1,6.7-81.1,12.4c-51.5,8.4-57.4-23.2-118-20.5
		c-36,1.6-31.5,12.6-91.4,20c-53.8,6.7-75.5,0-89.7-7.7c-11.5-6.1-13.2-10.3-25.3-14.3c-19.4-6.4-35.3-2.5-65,3.1
		c-30.9,5.9-46.4,8.8-56.7,9.6c-60.4,5-80.5-22.7-127.4-8.7c-18.5,5.5-12.8,9.1-34.6,16.3c-41.9,14-81.3,6.9-109.3,1.5
		c-44.4-8.5-43.3-17.4-66.5-15.1c-33.7,3.4-46.8,23.3-69.8,15.2C194.5,26.8,193.4,14,174.5,10c-11.2-2.3-17.5-0.2-36.8,5.6
		c-19.2,5.7-45.2,13.4-71,9c-22.6-3.9-27.2-14.1-52-14.9C2.6,9.5-7.5,11.5-14.1,13.3V-12h1939.4V22.4z"/>
</g>
</svg>
