<?xml version="1.0" encoding="utf-8"?>
<!-- Generator: Adobe Illustrator 25.0.0, SVG Export Plug-In . SVG Version: 6.00 Build 0)  -->
<svg version="1.1" id="Layer_1" xmlns="http://www.w3.org/2000/svg" xmlns:xlink="http://www.w3.org/1999/xlink" x="0px" y="0px"
	 viewBox="0 0 1920 75.6" style="enable-background:new 0 0 1920 75.6;" xml:space="preserve">
<style type="text/css">
	.st0{fill:#131313;}
</style>
<g>
	<path class="st0" d="M-22.8,13.5"/>
	<path class="st0" d="M1915.9,28.1c-15.5,4.6-28.4-0.2-38.8-2.8c-36.9-9.2-43.9,9.1-87.7,3.2c-32.3-4.3-28.7-14.2-53.4-14.7
		c-36.2-0.7-42.2,20.6-76.8,19.9c-29.4-0.6-31-16-62.7-16.3c-30.4-0.3-32.8,13.8-61.5,13.3c-33.1-0.6-36-19.6-69.1-21
		c-27.9-1.1-31.5,12.1-67.7,15.3c-19.8,1.7-20-2.6-63.6-6.6c-53.2-4.9-79.8-7.3-98.3-1c-21.2,7.2-30.9,17.6-49.6,14.3
		c-15-2.7-18.3-11.1-32-17c-26.6-11.5-46.2,6.7-81.3,12.4c-51.6,8.4-57.6-23.2-118.3-20.5c-36.1,1.6-31.6,12.6-91.6,20
		c-53.9,6.7-75.7,0-89.9-7.7c-11.6-6.1-13.3-10.2-25.5-14.2c-19.5-6.4-35.4-2.5-65.2,3.1c-31,5.9-46.5,8.8-56.9,9.6
		c-60.6,5-80.7-22.7-127.7-8.7c-18.5,5.5-12.8,9.1-34.7,16.3c-41.9,14-81.5,7-109.6,1.6c-44.5-8.5-43.4-17.4-66.7-15.1
		c-33.8,3.4-46.9,23.3-70,15.2C200.9,21,199.8,8.2,180.8,4.3c-11.2-2.3-17.5-0.2-36.9,5.6c-19.3,5.7-45.3,13.4-71.2,9
		c-17-3-23.9-9.5-36.9-12.9c-4.4-1.2-9.2-1.9-15.1-2.1C12.8,3.6-1.9,4.4-19.8,14v30.1H1926V23.9C1923.1,25.5,1919.7,27,1915.9,28.1z
		"/>
	<rect x="-19.8" y="41.1" class="st0" width="1945.8" height="38.6"/>
</g>
</svg>
